PathFileType	4	(X/Y/Z)	/Users/visionmauri/4_1_1_f_Sports2D/4_1_1_f_Sports2D_m_person00.trc
DataRate	CameraRate	NumFrames	NumMarkers	Units	OrigDataRate	OrigDataStartFrame	OrigNumFrames
30.0	30.0	10	22	m	30.0	310	355
Frame#	Time	Hip			RHip			RKnee			RAnkle			RBigToe			RSmallToe			RHeel			LHip			LKnee			LAnkle			LBigToe			LSmallToe			LHeel			Neck			Head			Nose			RShoulder			RElbow			RWrist			LShoulder			LElbow			LWrist			
		X1	Y1	Z1	X2	Y2	Z2	X3	Y3	Z3	X4	Y4	Z4	X5	Y5	Z5	X6	Y6	Z6	X7	Y7	Z7	X8	Y8	Z8	X9	Y9	Z9	X10	Y10	Z10	X11	Y11	Z11	X12	Y12	Z12	X13	Y13	Z13	X14	Y14	Z14	X15	Y15	Z15	X16	Y16	Z16	X17	Y17	Z17	X18	Y18	Z18	X19	Y19	Z19	X20	Y20	Z20	X21	Y21	Z21	X22	Y22	Z22
310	10.362523540489644	1.384579221263975	0.8179072277602084	0.0301	1.2567918992887843	0.8528746571062629	0.0301	1.0191099380305981	0.4956793615953754	0.129	0.8869681933863296	0.06735537259986732	0.023	0.8111442082535492	-0.10771836581384348	0.2179	0.7646974068704115	-0.0681366778842127	0.1804	0.9093979628036064	-0.001581647908440846	-0.0119	1.4976882113558536	0.7355079816869466	0.0301	1.3336734872117524	0.2875891037002606	0.129	1.158969927813546	-0.19358909239398625	0.023	1.138462899980579	-0.3666196461319203	0.2179	1.2106917504830625	-0.37682586022026987	0.1804	1.0960097078457915	-0.25470772595526714	-0.0119	1.6751552030230406	1.47521288729018	0.0008	1.759167530415736	1.7418399958356703	0.0655	1.6575481058014332	1.5236900335210168	0.1076	1.424318943095872	1.4597083085715885	-0.01275	1.1621079083751642	1.1925376603249438	0.0702	0.8952275010895506	1.006789026323885	0.1076	1.8762757851723353	1.3307716364076467	-0.01275	1.8953824811844904	0.9809929599587444	0.0702	1.8027191680737975	0.7503644672054105	0.1076
311	10.395951035781545	1.3827367032492124	0.8167519283970658	0.0301	1.2531256883057766	0.8508696260223981	0.0301	1.015785562962951	0.4901025242280821	0.129	0.8851371218011019	0.060534061714235955	0.023	0.8020464699032905	-0.12114904802241915	0.2179	0.7570596719933085	-0.07875973367932142	0.1804	0.9150004706604439	-0.013404388840318448	-0.0119	1.4957230890411648	0.7344263989635768	0.0301	1.3335757145483966	0.2880091558197518	0.129	1.1591751538005557	-0.19131529897010574	0.023	1.1395216601559517	-0.36718022734088035	0.2179	1.2121364705473918	-0.3778572327059359	0.1804	1.0956491772402708	-0.2538929512835301	-0.0119	1.6799388534087023	1.4749662155100185	0.0008	1.7665233923861632	1.740922328919651	0.0655	1.6664210247514022	1.517299916852013	0.1076	1.4305722307752988	1.4624751488189964	-0.01275	1.1657867950624368	1.1960912753235564	0.0702	0.896937225283701	1.009965493017697	0.1076	1.879437744367187	1.3300690826410129	-0.01275	1.8932474861717714	0.9773446270616128	0.0702	1.8072087033013362	0.7488676066112868	0.1076
312	10.429378531073446	1.380664109986171	0.8156888013356788	0.0301	1.2491382147200607	0.849233827885475	0.0301	1.0089777414836831	0.47755695053965785	0.129	0.8806648130925003	0.046646157193710264	0.023	0.789490208236683	-0.13838455367881464	0.2179	0.7445755762108248	-0.09428518274939658	0.1804	0.9116429008985198	-0.03862992349134185	-0.0119	1.4934469564614121	0.7338504929005897	0.0301	1.3309910367775528	0.28612921037982036	0.129	1.1592263378097478	-0.18866642593955518	0.023	1.1389157583729013	-0.3674182242998483	0.2179	1.213614952093289	-0.37787379062018067	0.1804	1.0967001135591197	-0.25097192870313784	-0.0119	1.6837347776616363	1.4740384900392685	0.0008	1.772641264921214	1.74363081569572	0.0655	1.667706891961768	1.5188011993614905	0.1076	1.4372915002401627	1.4672985215235161	-0.01275	1.1690473497854008	1.200711025095015	0.0702	0.8983362221425503	1.0127785337654025	0.1076	1.8831289340008845	1.3279335050744896	-0.01275	1.8902891239455162	0.9693776710410844	0.0702	1.808842869129471	0.7475145063816748	0.1076
313	10.46280602636535	1.378479533085442	0.8162667726181813	0.0301	1.247145431023535	0.8486455771097576	0.0301	1.0030482348628011	0.4594229496981019	0.129	0.8727012894027694	0.02157207128736459	0.023	0.7774313503572315	-0.15486139207677999	0.2179	0.7312288887645466	-0.11089461841938016	0.1804	0.9000397252081113	-0.08073011119537396	-0.0119	1.4920596306681904	0.7338277514685719	0.0301	1.3275332797263217	0.28405946494204165	0.129	1.1589629563933908	-0.1865640256770828	0.023	1.1355085402290384	-0.3668193283724096	0.2179	1.2142663588788272	-0.376394595654018	0.1804	1.098722914448229	-0.2482717343662828	-0.0119	1.6879963823290656	1.4726498277506743	0.0008	1.7762830078546081	1.7497004939746934	0.0655	1.6585747893529663	1.5308939233264667	0.1076	1.4443362179329047	1.4722916756428517	-0.01275	1.1722629075885462	1.2038061596550518	0.0702	0.8996372467637147	1.0145736129064777	0.1076	1.8868133544916428	1.3232484355781833	-0.01275	1.8863497248791044	0.9575286663440745	0.0702	1.80692656586022	0.7445011762603428	0.1076
314	10.49623352165725	1.3778570542894344	0.8173071539027894	0.0301	1.2469511488894367	0.8492272540277858	0.0301	1.0039698316558159	0.44526272337979284	0.129	0.8643591751513452	-0.004964665103563343	0.023	0.7680454783921089	-0.16917281404447798	0.2179	0.7184471379055155	-0.12566998879410635	0.1804	0.8887948912990679	-0.11885732283835937	-0.0119	1.4916060355462661	0.7341653177422144	0.0301	1.3252971898108288	0.28312845736884873	0.129	1.158746371237492	-0.18633187665484663	0.023	1.1318045733386164	-0.36674239289888433	0.2179	1.2145562198931183	-0.37443378051757326	0.1804	1.1001860521637756	-0.24624344281943264	-0.0119	1.6930958014980921	1.4710752461859415	0.0008	1.7773725870623032	1.7546582745766506	0.0655	1.6474759135918369	1.5423382873341582	0.1076	1.4499456524731997	1.4760085444055937	-0.01275	1.1747847272659588	1.2056446981214761	0.0702	0.9013029376917787	1.0159093451707635	0.1076	1.890079982529611	1.3155589794397684	-0.01275	1.882118446117751	0.9475728123300048	0.0702	1.803437901559826	0.739879782969063	0.1076
315	10.529661016949154	1.3794866195631403	0.8167985764697059	0.0301	1.24767749232326	0.8501563816624992	0.0301	1.0126983659930402	0.4409899787890375	0.129	0.8578205502693605	-0.021312057166974544	0.023	0.7615268763611305	-0.18049269832707618	0.2179	0.7070527541594549	-0.13661733720936423	0.1804	0.8813727598295142	-0.13379626795917873	-0.0119	1.4914991904128492	0.7341709294159637	0.0301	1.3255142033748373	0.2838445747306266	0.129	1.159230898431637	-0.18850085186741602	0.023	1.1302311427330098	-0.3671416586741925	0.2179	1.2147863628751254	-0.3732699284058483	0.1804	1.1005928842444848	-0.24510447924197235	-0.0119	1.6967959391191574	1.470858107515239	0.0008	1.777060388246762	1.756328827225054	0.0655	1.6428233410590916	1.544731831563736	0.1076	1.4517647499771205	1.4782075788728528	-0.01275	1.1762093272454175	1.2080964503736114	0.0702	0.9022728785799786	1.016832758167542	0.1076	1.8916779011464413	1.3082187555763516	-0.01275	1.8788253983541972	0.9433908250202305	0.0702	1.800639811813718	0.7348740788046916	0.1076
316	10.563088512241055	1.3815557180703693	0.8150201612289748	0.0301	1.2496458817944849	0.8500940733975235	0.0301	1.0230609300353475	0.4425397447442317	0.129	0.851076605510391	-0.028986510976646077	0.023	0.7557515426653886	-0.18568868403324645	0.2179	0.6989753490655718	-0.14061889574804531	0.1804	0.8737754708610551	-0.13782282726955836	-0.0119	1.4917330955077637	0.7337171048718953	0.0301	1.3280580700568074	0.2856606489168595	0.129	1.1603698689380662	-0.19152449869325372	0.023	1.1306309663437295	-0.3661415585514735	0.2179	1.2147730520053435	-0.3732233799203475	0.1804	1.100318595562563	-0.2471764053651918	-0.0119	1.6969300275586423	1.4727612841151065	0.0008	1.7773044307297807	1.757877353049157	0.0655	1.6428490699727967	1.5455132542950838	0.1076	1.4505771102077099	1.479123300038931	-0.01275	1.1772350504815852	1.210112922988852	0.0702	0.9017100057523527	1.0164841937548654	0.1076	1.8903278956104392	1.305208410038239	-0.01275	1.8766719069427134	0.9408973938053261	0.0702	1.7981724591972492	0.7312110733243992	0.1076
317	10.596516007532957	1.3830723541794174	0.8139992418594468	0.0301	1.253825630741978	0.8486663143242928	0.0301	1.029101284176168	0.4428744885205975	0.129	0.8426847080073204	-0.035878092749649565	0.023	0.7474101776631774	-0.18531208019649428	0.2179	0.6934737776267973	-0.13959251613574641	0.1804	0.8636521848508343	-0.14997560045565178	-0.0119	1.4935249637353052	0.7338250970165178	0.0301	1.331480102972407	0.28744794460660955	0.129	1.16112712630897	-0.1934918375935448	0.023	1.131896889632487	-0.36345092545769647	0.2179	1.2141973162253157	-0.3735140013635	0.1804	1.0999186867229895	-0.2525328991074962	-0.0119	1.6935253710381653	1.4757827065030928	0.0008	1.778108157491726	1.7609806717015044	0.0655	1.6415690507674054	1.5528841669024631	0.1076	1.449793616926851	1.4797372127710777	-0.01275	1.1791388935006615	1.2102774554675857	0.0702	0.9011884503490699	1.0160870600931815	0.1076	1.886578181301798	1.3085550475760213	-0.01275	1.8741000790526894	0.9371702498751276	0.0702	1.7933889240303873	0.7291798064027151	0.1076
318	10.62994350282486	1.3852729289178327	0.8143375428943068	0.0301	1.2586351537510927	0.846308338882779	0.0301	1.0311336775772988	0.4371850206635505	0.129	0.8346795045945204	-0.04434527165920095	0.023	0.7371467119250065	-0.1855007587474075	0.2179	0.6880183548115071	-0.14212967974916305	0.1804	0.8543736082900706	-0.16583346884280534	-0.0119	1.4978842768308438	0.7347483324481457	0.0301	1.3340441647852825	0.28768944078500075	0.129	1.1609053299463519	-0.19447115798434603	0.023	1.1331376197840743	-0.3615226969391907	0.2179	1.2130225083045898	-0.3736615472489976	0.1804	1.0996705874254336	-0.25713179707621303	-0.0119	1.6872603896932905	1.4785766416373716	0.0008	1.7770018191849697	1.7628333704150743	0.0655	1.6403272036103826	1.5607956470951616	0.1076	1.4477773045553926	1.481220698972623	-0.01275	1.1815810202339825	1.210230774827472	0.0702	0.9020129965538355	1.018159658168408	0.1076	1.8819398568100307	1.3171030022399426	-0.01275	1.8691351234885456	0.9360258695437859	0.0702	1.7854309644990822	0.7260929957931075	0.1076
319	10.663370998116761	1.3887171800501261	0.8143437199224558	0.0301	1.2609591735895236	0.8427863641960063	0.0301	1.03245862760205	0.4251737182275246	0.129	0.8290167654148022	-0.05297220199352431	0.023	0.7284284720034412	-0.19106488575893943	0.2179	0.6815849593454445	-0.15230446903306374	0.1804	0.8490928509462288	-0.17454533815434112	-0.0119	1.502938767264331	0.735234481681792	0.0301	1.3350963100621034	0.28464547938215357	0.129	1.1601859179900655	-0.195147027058594	0.023	1.1333988359347005	-0.3620571960282187	0.2179	1.2118492039666635	-0.374118371846458	0.1804	1.0992119476756574	-0.25807232011862524	-0.0119	1.679822495872319	1.4806045249428175	0.0008	1.7724884852605314	1.7622965747102501	0.0655	1.6418387350415051	1.5614457181319266	0.1076	1.4403113744679974	1.482862082006757	-0.01275	1.1825882014882563	1.2115569492168836	0.0702	0.9030626313289419	1.0223334143015157	0.1076	1.8772914021803186	1.3260789524101941	-0.01275	1.8615534693050435	0.939473063615165	0.0702	1.7779880987048757	0.7212560098652149	0.1076
